<?xml version="1.0" encoding="utf-8"?>
<!-- Generator: Adobe Illustrator 16.0.0, SVG Export Plug-In . SVG Version: 6.00 Build 0)  -->
<!DOCTYPE svg PUBLIC "-//W3C//DTD SVG 1.1//EN" "http://www.w3.org/Graphics/SVG/1.1/DTD/svg11.dtd">
<svg version="1.1" id="Layer_1" xmlns="http://www.w3.org/2000/svg" xmlns:xlink="http://www.w3.org/1999/xlink" x="0px" y="0px"
	 width="697.3px" height="191.922px" viewBox="0 0 697.3 191.922" enable-background="new 0 0 697.3 191.922" xml:space="preserve">
<g>
	<g>
		<g>
			<path fill="#28A8E0" d="M277.105,37.099h-49.705c-1.794,0-3.245,1.458-3.245,3.248v89.702c0,1.794,1.451,3.25,3.245,3.25h49.705
				c1.794,0,3.247-1.456,3.247-3.25V119.61c0-1.794-1.453-3.245-3.247-3.245h-35.114v-23.41h35.419c1.794,0,3.25-1.448,3.25-3.245
				v-9.923c0-1.796-1.456-3.247-3.25-3.247h-35.419V54.035h35.114c1.794,0,3.247-1.453,3.247-3.247V40.347
				C280.353,38.558,278.899,37.099,277.105,37.099z"/>
			<path fill="#28A8E0" d="M340.005,39.229c-0.465-1.278-1.685-2.129-3.049-2.129h-9.795c-1.362,0-2.582,0.851-3.044,2.129
				l-32.87,89.704c-0.364,0.996-0.219,2.112,0.386,2.979c0.607,0.866,1.603,1.388,2.663,1.388h11.859
				c1.38,0,2.607-0.869,3.064-2.173l6.457-18.447h32.639l6.455,18.447c0.458,1.304,1.683,2.173,3.064,2.173h11.988
				c0.016,0,0.021,0,0.036,0c1.789,0,3.247-1.456,3.247-3.25c0-0.549-0.143-1.067-0.386-1.527L340.005,39.229z M342.851,96.518
				h-21.7l7.412-21.433l3.451-10.177L342.851,96.518z"/>
			<path fill="#28A8E0" d="M431.03,37.099h-62.387c-1.794,0-3.242,1.458-3.242,3.248v9.922c0,1.796,1.448,3.25,3.242,3.25h22.279
				v76.53c0,1.794,1.459,3.25,3.248,3.25h11.343c1.794,0,3.247-1.456,3.247-3.25v-76.53h22.27c1.794,0,3.247-1.454,3.247-3.25
				v-9.922C434.277,38.558,432.824,37.099,431.03,37.099z"/>
			<path fill="#ACD038" d="M579.001,37.099h-56.715c-1.794,0-3.247,1.458-3.247,3.248v89.702c0,1.794,1.453,3.25,3.247,3.25h11.343
				c1.794,0,3.243-1.456,3.243-3.25V93.601h35.421c1.794,0,3.247-1.454,3.247-3.25v-9.922c0-1.789-1.453-3.245-3.247-3.245h-35.421
				V54.035h42.129c1.789,0,3.242-1.453,3.242-3.247V40.347C582.244,38.558,580.791,37.099,579.001,37.099z"/>
			<path fill="#ACD038" d="M611.75,37.099h-11.348c-1.794,0-3.247,1.458-3.247,3.248v89.702c0,1.794,1.453,3.25,3.247,3.25h11.348
				c1.789,0,3.243-1.456,3.243-3.25V40.347C614.993,38.558,613.539,37.099,611.75,37.099z"/>
			<path fill="#ACD038" d="M694.052,37.099h-62.376c-1.799,0-3.252,1.458-3.252,3.248v9.922c0,1.796,1.453,3.25,3.252,3.25h22.265
				v76.53c0,1.794,1.448,3.25,3.252,3.25h11.343c1.789,0,3.243-1.456,3.243-3.25v-76.53h22.273c1.794,0,3.248-1.454,3.248-3.25
				v-9.922C697.3,38.558,695.846,37.099,694.052,37.099z"/>
			<g>
				<path fill="#AAE0F6" d="M449.593,49.186l12.446,13.562c0.659-2.405,1.789-4.385,3.431-5.998c2.008-1.982,4.446-2.938,7.45-2.938
					c1.972,0,3.613,0.267,4.969,0.787c2.23-5.149,4.861-10.189,7.938-15.061c-0.639-0.253-1.278-0.503-1.949-0.711
					c-3.354-1.037-6.947-1.562-10.692-1.562c-3.543,0-6.963,0.582-10.185,1.737c-3.237,1.159-6.18,2.851-8.741,5.026
					C452.514,45.511,450.962,47.25,449.593,49.186z"/>
				<path fill="#ACD038" d="M497.024,133.978c1.794,0,3.248-1.45,3.248-3.245v-10.44c0-0.38-0.077-0.739-0.197-1.077l-16.046,14.763
					H497.024z"/>
				<path fill="#ACD038" d="M469.06,86.767l-24.848,31.381c-0.452,0.571-0.696,1.283-0.696,2.018v10.567
					c0,2.916,2.153,3.245,3.247,3.245h24.299c-1.205-5.425-2.094-11.099-2.624-16.933h-1.688l1.528-1.931
					C467.574,105.921,467.773,96.36,469.06,86.767z"/>
				<path fill="#ACD038" d="M447.79,52.023c-1.732,3.115-2.892,6.629-3.466,10.434c-0.132,0.854,0.092,1.725,0.605,2.421
					c0.518,0.691,1.29,1.148,2.145,1.271l10.829,1.551c1.784,0.254,3.415-0.974,3.675-2.745c0.112-0.774,0.27-1.506,0.462-2.206
					l-12.446-13.562C448.953,50.092,448.34,51.026,447.79,52.023z"/>
				<path fill="#38BBE9" d="M487.643,90.648l6.24-7.885c2.368-2.939,4.193-6.213,5.433-9.727c1.24-3.517,1.855-6.828,1.855-9.844
					c0-2.664-0.312-5.162-0.925-7.474l-24.214,22.277L487.643,90.648z"/>
				<path fill="#29ABE2" d="M480.783,56.559c1.717,1.982,2.556,4.236,2.556,6.889c0,3.578-1.413,7.095-4.324,10.748l-2.997,3.784
					l0.016,0.018l24.214-22.277c-0.339-1.28-0.769-2.506-1.296-3.666c-1.475-3.239-3.502-6.013-6.027-8.245
					c-2.034-1.795-4.428-3.214-7.097-4.27c-3.076,4.871-5.707,9.911-7.938,15.061C479.07,55.054,480.035,55.7,480.783,56.559z"/>
				<path fill="#10994B" d="M475.926,78.095l-6.866,8.672c-1.287,9.594-1.486,19.154-0.781,28.348l19.364-24.466l-11.61-12.651
					L475.926,78.095z"/>
				<path fill="#10994B" d="M484.029,133.978l16.046-14.763c-0.446-1.262-1.637-2.17-3.051-2.17h-28.586
					c0.53,5.834,1.419,11.508,2.624,16.933H484.029z"/>
			</g>
		</g>
		<g>
			<linearGradient id="SVGID_1_" gradientUnits="userSpaceOnUse" x1="695.2427" y1="171.9116" x2="223.4341" y2="171.9116">
				<stop  offset="0" style="stop-color:#8CC541"/>
				<stop  offset="1" style="stop-color:#1BBBE4"/>
			</linearGradient>
			<path fill="url(#SVGID_1_)" d="M230.186,176.122h-2.419v8.565h-3.611v-23.651c0-1.901,0.632-1.901,3.611-1.901h3.021
				c6.228,0,10.634,2.018,10.634,8.018C241.422,172.907,236.655,176.122,230.186,176.122z M230.742,162.429h-2.975v10.433h2.462
				c4.289,0,7.422-1.902,7.422-5.709C237.651,163.298,234.079,162.429,230.742,162.429z"/>
			<linearGradient id="SVGID_2_" gradientUnits="userSpaceOnUse" x1="695.23" y1="175.1411" x2="223.4344" y2="175.1411">
				<stop  offset="0" style="stop-color:#8CC541"/>
				<stop  offset="1" style="stop-color:#1BBBE4"/>
			</linearGradient>
			<path fill="url(#SVGID_2_)" d="M249.724,173.853l5.435-0.63v-0.079c-0.201-3.618-2.421-4.843-5.555-4.843
				c-1.667,0-3.255,0.521-4.729,1.118v-1.202c0-1.938,3.537-3.021,6.154-3.021c3.014,0,7.145,1.039,7.582,7.585l0.714,10.286
				c0.119,1.786-0.592,1.786-3.494,1.786l-0.239-3.804c-1.385,2.538-3.567,4.037-6.747,4.037c-4.085,0-5.793-3.006-5.793-5.796
				C243.053,176.404,245.114,174.414,249.724,173.853z M250.079,182.396c3.093,0,4.922-3.458,5.08-6.632l-5.08,0.641
				c-1.868,0.233-3.059,1.229-3.059,2.771C247.02,181.011,248.014,182.396,250.079,182.396z"/>
			<linearGradient id="SVGID_3_" gradientUnits="userSpaceOnUse" x1="695.2329" y1="178.6851" x2="223.4369" y2="178.685">
				<stop  offset="0" style="stop-color:#8CC541"/>
				<stop  offset="1" style="stop-color:#1BBBE4"/>
			</linearGradient>
			<path fill="url(#SVGID_3_)" d="M280.406,191.922c-0.473,0-1.07-0.203-2.023-0.523c0.633-1.937,1.311-4.643,1.509-6.711h-9.488
				c-4.17,0-5.595-1.385-5.595-5.474v-11.869c0-1.897,0.437-1.897,3.333-1.897v13.216c0,1.941,0.752,2.93,2.742,2.93h7.14v-15.99
				h3.336v16.668l2.938,0.636v0.478c-0.516,2.622-1.393,5.834-2.383,7.425C281.443,191.525,281.127,191.922,280.406,191.922z"/>
			<linearGradient id="SVGID_4_" gradientUnits="userSpaceOnUse" x1="695.2573" y1="175.2266" x2="223.4378" y2="175.2265">
				<stop  offset="0" style="stop-color:#8CC541"/>
				<stop  offset="1" style="stop-color:#1BBBE4"/>
			</linearGradient>
			<path fill="url(#SVGID_4_)" d="M304.03,184.853v-13.731l-11.193,13.93c-0.953-0.081-1.865-0.398-2.696-0.915v-16.791
				c0-1.897,0.435-1.897,3.331-1.897v13.729l11.196-13.774c0.991,0.079,1.824,0.398,2.698,0.958v16.628
				C307.366,184.853,306.97,184.853,304.03,184.853z"/>
			<linearGradient id="SVGID_5_" gradientUnits="userSpaceOnUse" x1="695.2456" y1="175.1411" x2="223.4391" y2="175.1411">
				<stop  offset="0" style="stop-color:#8CC541"/>
				<stop  offset="1" style="stop-color:#1BBBE4"/>
			</linearGradient>
			<path fill="url(#SVGID_5_)" d="M321.903,185.086c-5.564,0-9.175-4.238-9.175-10.313c0-6.08,3.456-9.577,9.175-9.577
				c5.71,0,9.201,3.497,9.201,9.577C331.104,180.848,327.455,185.086,321.903,185.086z M321.903,168.26
				c-3.895,0-5.603,2.699-5.603,6.513c0,3.769,1.865,7.186,5.603,7.186c3.725,0,5.631-3.417,5.631-7.186
				C327.534,170.959,325.788,168.26,321.903,168.26z"/>
			<linearGradient id="SVGID_6_" gradientUnits="userSpaceOnUse" x1="695.3511" y1="175.1504" x2="223.4059" y2="175.1503">
				<stop  offset="0" style="stop-color:#8CC541"/>
				<stop  offset="1" style="stop-color:#1BBBE4"/>
			</linearGradient>
			<path fill="url(#SVGID_6_)" d="M336.427,184.688v-17.343c0-1.897,0.439-1.897,3.375-1.897v8.613h10.085v-8.458h3.337v17.385
				c0,1.865-0.401,1.865-3.337,1.865v-7.895h-10.085v7.729H336.427z"/>
			<linearGradient id="SVGID_7_" gradientUnits="userSpaceOnUse" x1="695.2759" y1="175.0679" x2="223.4348" y2="175.0678">
				<stop  offset="0" style="stop-color:#8CC541"/>
				<stop  offset="1" style="stop-color:#1BBBE4"/>
			</linearGradient>
			<path fill="url(#SVGID_7_)" d="M366.046,184.688h-0.798c-3.73,0-5.712-1.461-5.712-5.155v-12.545c0-1.507,0.716-1.54,3.374-1.54
				v7.46h2.933c4.294,0,7.43,1.431,7.43,5.52C373.273,182.787,369.736,184.688,366.046,184.688z M362.911,175.723v3.491
				c0,1.748,0.828,2.628,2.704,2.628h0.269c1.941,0,3.812-0.88,3.812-3.144c0-2.381-2.139-2.976-4.126-2.976H362.911z
				 M376.282,184.688v-17.343c0-1.897,0.401-1.897,3.339-1.897v19.24H376.282z"/>
			<linearGradient id="SVGID_8_" gradientUnits="userSpaceOnUse" x1="695.1792" y1="175.1411" x2="223.4937" y2="175.1411">
				<stop  offset="0" style="stop-color:#8CC541"/>
				<stop  offset="1" style="stop-color:#1BBBE4"/>
			</linearGradient>
			<path fill="url(#SVGID_8_)" d="M398.561,185.086c-3.141,0-5.001-0.99-5.001-3.054v-1.105c1.347,0.59,2.739,0.95,4.478,0.95
				c2.424,0,4.137-1.118,4.137-2.622c0-1.982-1.946-2.297-5.601-2.297c-0.122-0.958,0-1.954,0.32-2.584
				c3.212,0,5.509-1.594,5.509-3.494c0-1.784-1.464-2.62-3.247-2.62c-2.19,0-3.375,1.266-3.375,2.699v0.676h-1.031
				c-0.996,0-1.941-0.593-1.941-1.903c0-2.823,3.019-4.536,6.581-4.536c3.975,0,6.592,1.957,6.592,5.247
				c0,2.143-1.545,3.812-4.086,4.846c2.378,0.593,3.852,1.906,3.852,4.244C405.747,183.107,402.006,185.086,398.561,185.086z"/>
			<linearGradient id="SVGID_9_" gradientUnits="userSpaceOnUse" x1="695.2114" y1="178.7627" x2="223.4758" y2="178.7626">
				<stop  offset="0" style="stop-color:#8CC541"/>
				<stop  offset="1" style="stop-color:#1BBBE4"/>
			</linearGradient>
			<path fill="url(#SVGID_9_)" d="M426.75,191.922c-0.482,0-1.118-0.203-2.032-0.523c0.64-1.937,1.315-4.643,1.514-6.711H413.09
				l-1.229,5.644c-0.234,1.24-0.951,1.266-3.096,1.266v-8.69l3.177-0.636l3.009-13.578h-1.779c0-2.181,0-3.09,1.225-3.09h7.71
				c4.202,0,5.59,1.428,5.59,5.476v11.192l2.938,0.636v0.478c-0.519,2.622-1.388,5.834-2.384,7.425
				C427.777,191.525,427.421,191.922,426.75,191.922z M424.367,171.635c0-1.944-0.757-2.942-2.738-2.942h-3.7l-2.262,12.9h8.7
				V171.635z"/>
			<linearGradient id="SVGID_10_" gradientUnits="userSpaceOnUse" x1="695.3589" y1="175.1411" x2="223.3611" y2="175.1411">
				<stop  offset="0" style="stop-color:#8CC541"/>
				<stop  offset="1" style="stop-color:#1BBBE4"/>
			</linearGradient>
			<path fill="url(#SVGID_10_)" d="M442.545,185.086c-5.555,0-9.168-4.238-9.168-10.313c0-6.08,3.456-9.577,9.168-9.577
				c5.723,0,9.214,3.497,9.214,9.577C451.759,180.848,448.105,185.086,442.545,185.086z M442.545,168.26
				c-3.888,0-5.596,2.699-5.596,6.513c0,3.769,1.865,7.186,5.596,7.186c3.735,0,5.641-3.417,5.641-7.186
				C448.186,170.959,446.438,168.26,442.545,168.26z"/>
			<linearGradient id="SVGID_11_" gradientUnits="userSpaceOnUse" x1="695.186" y1="178.2183" x2="223.5311" y2="178.2182">
				<stop  offset="0" style="stop-color:#8CC541"/>
				<stop  offset="1" style="stop-color:#1BBBE4"/>
			</linearGradient>
			<path fill="url(#SVGID_11_)" d="M457.085,191.24v-23.896c0-1.897,0.432-1.897,3.374-1.897v4.319
				c1.428-2.896,3.883-4.571,7.176-4.571c4.843,0,7.542,3.822,7.542,9.143c0,5.791-3.69,10.748-8.889,10.748
				c-2.419,0-4.528-0.99-5.829-3.054v9.208H457.085z M466.644,168.26c-3.613,0-5.788,3.464-5.788,8.218
				c0,2.579,1.859,5.48,4.792,5.48c3.938,0,5.961-3.813,5.961-7.62C471.609,171.154,470.176,168.26,466.644,168.26z"/>
			<linearGradient id="SVGID_12_" gradientUnits="userSpaceOnUse" x1="695.2563" y1="175.1411" x2="223.4556" y2="175.1411">
				<stop  offset="0" style="stop-color:#8CC541"/>
				<stop  offset="1" style="stop-color:#1BBBE4"/>
			</linearGradient>
			<path fill="url(#SVGID_12_)" d="M488.4,185.086c-5.555,0-9.168-4.238-9.168-10.313c0-6.08,3.451-9.577,9.168-9.577
				c5.718,0,9.209,3.497,9.209,9.577C497.609,180.848,493.959,185.086,488.4,185.086z M488.4,168.26c-3.888,0-5.59,2.699-5.59,6.513
				c0,3.769,1.86,7.186,5.59,7.186c3.735,0,5.636-3.417,5.636-7.186C494.036,170.959,492.292,168.26,488.4,168.26z"/>
			<linearGradient id="SVGID_13_" gradientUnits="userSpaceOnUse" x1="695.3149" y1="175.1455" x2="223.368" y2="175.1455">
				<stop  offset="0" style="stop-color:#8CC541"/>
				<stop  offset="1" style="stop-color:#1BBBE4"/>
			</linearGradient>
			<path fill="url(#SVGID_13_)" d="M509.643,184.688h-0.991c-3.694,0-5.723-1.426-5.723-5.155v-12.027
				c0-1.902,0.438-1.902,3.339-1.902h3.735c4.122,0,6.982,1.585,6.982,4.962c0,2.183-1.271,3.651-3.333,4.485
				c2.221,0.638,3.409,1.824,3.409,4.126C517.062,182.751,513.612,184.688,509.643,184.688z M509.567,168.415h-3.299v5.72h2.308
				c2.774,0,4.833-0.834,4.833-3.057C513.409,169.018,511.589,168.415,509.567,168.415z M508.926,176.597h-2.658v2.539
				c0,1.875,0.834,2.782,2.744,2.782h0.346c2.465,0,4.132-0.991,4.132-2.818C513.49,177.077,511.548,176.597,508.926,176.597z"/>
			<linearGradient id="SVGID_14_" gradientUnits="userSpaceOnUse" x1="695.2378" y1="175.1411" x2="223.5092" y2="175.1411">
				<stop  offset="0" style="stop-color:#8CC541"/>
				<stop  offset="1" style="stop-color:#1BBBE4"/>
			</linearGradient>
			<path fill="url(#SVGID_14_)" d="M530.758,185.086c-5.555,0-9.163-4.238-9.163-10.313c0-6.08,3.451-9.577,9.163-9.577
				c5.723,0,9.209,3.497,9.209,9.577C539.967,180.848,536.323,185.086,530.758,185.086z M530.758,168.26
				c-3.883,0-5.59,2.699-5.59,6.513c0,3.769,1.87,7.186,5.59,7.186c3.73,0,5.646-3.417,5.646-7.186
				C536.405,170.959,534.657,168.26,530.758,168.26z"/>
			<linearGradient id="SVGID_15_" gradientUnits="userSpaceOnUse" x1="695.2827" y1="170.2261" x2="223.4342" y2="170.226">
				<stop  offset="0" style="stop-color:#8CC541"/>
				<stop  offset="1" style="stop-color:#1BBBE4"/>
			</linearGradient>
			<path fill="url(#SVGID_15_)" d="M559.192,184.853v-13.731l-11.195,13.93c-0.955-0.081-1.87-0.398-2.698-0.915v-16.791
				c0-1.897,0.432-1.897,3.333-1.897v13.729l11.191-13.774c0.99,0.079,1.829,0.398,2.703,0.958v16.628
				C562.526,184.853,562.125,184.853,559.192,184.853z M548.119,156.95c0-1.24,0.793-1.55,2.022-1.55
				c0,2.383,2.018,3.453,4.01,3.453c1.981,0,4.005-1.07,4.005-3.453c1.188,0,2.062,0.31,2.062,1.55c0,2.612-2.022,5.117-6.067,5.117
				C550.141,162.067,548.119,159.562,548.119,156.95z"/>
			<linearGradient id="SVGID_16_" gradientUnits="userSpaceOnUse" x1="695.3022" y1="175.1406" x2="223.3516" y2="175.1406">
				<stop  offset="0" style="stop-color:#8CC541"/>
				<stop  offset="1" style="stop-color:#1BBBE4"/>
			</linearGradient>
			<path fill="url(#SVGID_16_)" d="M597.582,182.591l-3.496-5.633h-0.753h-1.072v7.729h-3.339v-7.729h-1.031h-0.747l-3.496,5.633
				c-1.266,2.143-2.262,2.495-3.812,2.495c-1.032,0-2.465-0.434-2.465-1.542v-0.912h0.36c1.189,0,2.022-0.6,2.78-1.746l3.369-4.851
				c-3.883-2.338-2.18-8.332-6.195-8.332h-0.355v-0.795c0-1.187,1.199-1.713,2.343-1.713c5.52,0,2.501,8.898,7.745,8.898h1.504
				v-6.784c0-1.862,0.442-1.862,3.339-1.862v8.646h1.551c5.239,0,2.216-8.898,7.861-8.898c1.144,0,2.221,0.526,2.221,1.713v0.795
				h-0.36c-4.046,0-2.297,5.994-6.226,8.332l3.405,4.851c0.757,1.146,1.596,1.746,2.774,1.746h0.36v0.912
				c0,1.108-1.539,1.542-2.576,1.542C599.594,185.086,598.852,184.733,597.582,182.591z"/>
			<linearGradient id="SVGID_17_" gradientUnits="userSpaceOnUse" x1="695.2866" y1="175.2261" x2="223.4303" y2="175.226">
				<stop  offset="0" style="stop-color:#8CC541"/>
				<stop  offset="1" style="stop-color:#1BBBE4"/>
			</linearGradient>
			<path fill="url(#SVGID_17_)" d="M623.073,184.853v-13.731l-11.195,13.93c-0.951-0.081-1.865-0.398-2.699-0.915v-16.791
				c0-1.897,0.433-1.897,3.334-1.897v13.729l11.195-13.774c0.991,0.079,1.825,0.398,2.699,0.958v16.628
				C626.407,184.853,626.005,184.853,623.073,184.853z"/>
			<linearGradient id="SVGID_18_" gradientUnits="userSpaceOnUse" x1="695.2886" y1="175.1406" x2="223.4036" y2="175.1406">
				<stop  offset="0" style="stop-color:#8CC541"/>
				<stop  offset="1" style="stop-color:#1BBBE4"/>
			</linearGradient>
			<path fill="url(#SVGID_18_)" d="M637.399,185.086c-3.136,0-5.001-0.99-5.001-3.054v-1.105c1.352,0.59,2.739,0.95,4.492,0.95
				c2.42,0,4.127-1.118,4.127-2.622c0-1.982-1.946-2.297-5.605-2.297c-0.117-0.958,0-1.954,0.315-2.584
				c3.222,0,5.529-1.594,5.529-3.494c0-1.784-1.469-2.62-3.258-2.62c-2.186,0-3.369,1.266-3.369,2.699v0.676h-1.047
				c-0.986,0-1.937-0.593-1.937-1.903c0-2.823,3.014-4.536,6.592-4.536c3.969,0,6.591,1.957,6.591,5.247
				c0,2.143-1.55,3.812-4.086,4.846c2.378,0.593,3.837,1.906,3.837,4.244C644.58,183.107,640.849,185.086,637.399,185.086z"/>
			<linearGradient id="SVGID_19_" gradientUnits="userSpaceOnUse" x1="695.2886" y1="175.1499" x2="223.2919" y2="175.1499">
				<stop  offset="0" style="stop-color:#8CC541"/>
				<stop  offset="1" style="stop-color:#1BBBE4"/>
			</linearGradient>
			<path fill="url(#SVGID_19_)" d="M650.256,184.688v-17.343c0-1.897,0.442-1.897,3.385-1.897v8.613h10.082v-8.458h3.329v17.385
				c0,1.865-0.396,1.865-3.329,1.865v-7.895h-10.082v7.729H650.256z"/>
			<linearGradient id="SVGID_20_" gradientUnits="userSpaceOnUse" x1="695.2837" y1="175.2261" x2="223.4731" y2="175.226">
				<stop  offset="0" style="stop-color:#8CC541"/>
				<stop  offset="1" style="stop-color:#1BBBE4"/>
			</linearGradient>
			<path fill="url(#SVGID_20_)" d="M687.268,184.853v-13.731l-11.195,13.93c-0.955-0.081-1.87-0.398-2.698-0.915v-16.791
				c0-1.897,0.432-1.897,3.333-1.897v13.729l11.186-13.774c0.996,0.079,1.83,0.398,2.709,0.958v16.628
				C690.602,184.853,690.201,184.853,687.268,184.853z"/>
		</g>
	</g>
	<g>
		<g opacity="0.3">
			<path fill-rule="evenodd" clip-rule="evenodd" fill="#29ABE2" d="M132.165,77.425L0,31.435
				C38.727,123.935,104.229,105.658,132.165,77.425z"/>
		</g>
		<g opacity="0.3">
			<path fill-rule="evenodd" clip-rule="evenodd" fill="#29ABE2" d="M123.845,129.871c-12.275,34.598-30.451,50.558-58.254,57.04
				l10.85-30.451L123.845,129.871z"/>
		</g>
		<g>
			<path fill-rule="evenodd" clip-rule="evenodd" fill="#ACD038" d="M179.305,20.74c-0.051-1.087-1.263-2.231-1.492-3.324
				l-0.12-0.572c-2.109-10.118-11.587-16.687-22.754-16.821c-18.399-0.546-27.359,8.434-33.938,29.847l-11.34,32.271
				c-0.401,0.75-0.627,1.204-0.627,1.204l-32.466,93.014l3.293-1.827l43.987-24.66l17.436-10.985
				c26.152-14.547,36.405-39.555,22.03-65.712c10.35-4.063,12.553-12.446,14.893-20.445C179.62,27.901,180.169,25.692,179.305,20.74
				z"/>
			<g opacity="0.5">
				<path fill-rule="evenodd" clip-rule="evenodd" fill="#FFFFFF" d="M150.02,53.552l-26.149,76.294
					c4.17-2.435,22.445-14.067,22.445-14.067c28.017-18.89,27.277-43.654,17.004-62.605
					C162.143,53.232,158.525,55.427,150.02,53.552z"/>
			</g>
			<polygon fill-rule="evenodd" clip-rule="evenodd" fill="#6E6F71" points="176.083,12.215 225.647,3.751 179.407,26.511 			"/>
			<g>
				<path fill-rule="evenodd" clip-rule="evenodd" fill="#FFFFFF" d="M165.49,13.945c-2.795-2.861-7.387-2.919-10.255-0.124
					c-2.879,2.79-2.935,7.386-0.145,10.255c1.581,1.624,3.74,2.348,5.832,2.167c1.614-0.135,3.187-0.811,4.437-2.036
					C168.231,21.418,168.287,16.825,165.49,13.945z"/>
				<path fill-rule="evenodd" clip-rule="evenodd" fill="#6E6F71" d="M163.78,15.62c-1.875-1.921-4.953-1.964-6.878-0.089
					c-1.931,1.873-1.972,4.955-0.097,6.886c1.878,1.921,4.962,1.967,6.886,0.084C165.614,20.626,165.652,17.541,163.78,15.62z"/>
				<path fill-rule="evenodd" clip-rule="evenodd" fill="#FFFFFF" d="M160.807,15.928c-0.519-0.536-1.387-0.546-1.921-0.031
					c-0.542,0.529-0.551,1.393-0.031,1.931c0.526,0.536,1.388,0.549,1.931,0.023C161.32,17.33,161.333,16.466,160.807,15.928z"/>
			</g>
		</g>
		<g>
			<path fill-rule="evenodd" clip-rule="evenodd" fill="#29ABE2" d="M138.329,62.494L6.167,16.509
				C44.894,109.007,110.396,90.727,138.329,62.494z"/>
		</g>
		<g>
			<path fill-rule="evenodd" clip-rule="evenodd" fill="#29ABE2" d="M179.567,26.239c-0.519,4.381-3.064,12.049-3.064,12.049
				c-4.714,14.326-16.326,17.861-26.515,15.229L179.567,26.239z"/>
		</g>
		<g>
			<path fill-rule="evenodd" clip-rule="evenodd" fill="#29ABE2" d="M92.515,110.882c3.186,8.367,5.813,24.528,5.813,24.528
				c4.996,30.172-12.011,47.41-32.792,52.25L92.515,110.882z"/>
		</g>
	</g>
</g>
</svg>
